{
  "accessors": [
    {
      "bufferView": 2,
      "componentType": 5126,
      "count": 281,
      "max": [
        31.110906600952148,
        19.033664703369141,
        42.665386199951172
      ],
      "min": [
        -31.110906600952148,
        9.9983968734741211,
        -21.131450653076172
      ],
      "type": "VEC3"
    },
    {
      "bufferView": 2,
      "byteOffset": 3372,
      "componentType": 5126,
      "count": 281,
      "max": [
        1,
        0.99947631359100342,
        1
      ],
      "min": [
        -1,
        -1,
        -0.53566479682922363
      ],
      "type": "VEC3"
    },
    {
      "bufferView": 3,
      "componentType": 5126,
      "count": 281,
      "max": [
        1,
        0.99993497133255005,
        0.99999445676803589,
        1
      ],
      "min": [
        -1,
        -1,
        -1,
        -1
      ],
      "type": "VEC4"
    },
    {
      "bufferView": 0,
      "componentType": 5125,
      "count": 594,
      "max": [
        280
      ],
      "min": [
        0
      ],
      "type": "SCALAR"
    },
    {
      "bufferView": 2,
      "byteOffset": 6744,
      "componentType": 5126,
      "count": 254,
      "max": [
        14.534685134887695,
        25.593290328979492,
        12.280710220336914
      ],
      "min": [
        -14.534685134887695,
        9.9983968734741211,
        -30.210277557373047
      ],
      "type": "VEC3"
    },
    {
      "bufferView": 2,
      "byteOffset": 9792,
      "componentType": 5126,
      "count": 254,
      "max": [
        0.99852246046066284,
        0.9876563549041748,
        1
      ],
      "min": [
        -0.99852246046066284,
        -0.98594605922698975,
        -0.99018901586532593
      ],
      "type": "VEC3"
    },
    {
      "bufferView": 3,
      "byteOffset": 4496,
      "componentType": 5126,
      "count": 254,
      "max": [
        1,
        1,
        0.99944180250167847,
        1
      ],
      "min": [
        -1,
        -0.9642682671546936,
        -0.8574633002281189,
        -1
      ],
      "type": "VEC4"
    },
    {
      "bufferView": 0,
      "byteOffset": 2376,
      "componentType": 5125,
      "count": 450,
      "max": [
        253
      ],
      "min": [
        0
      ],
      "type": "SCALAR"
    },
    {
      "bufferView": 2,
      "byteOffset": 12840,
      "componentType": 5126,
      "count": 36,
      "max": [
        14.082698822021484,
        13.417859077453613,
        10.56833553314209
      ],
      "min": [
        -14.082698822021484,
        10.389829635620117,
        7.5300455093383789
      ],
      "type": "VEC3"
    },
    {
      "bufferView": 2,
      "byteOffset": 13272,
      "componentType": 5126,
      "count": 36,
      "max": [
        0.7751203179359436,
        0.89503121376037598,
        0.44600477814674377
      ],
      "min": [
        -0.7751203179359436,
        -0.89503061771392822,
        0.44600334763526917
      ],
      "type": "VEC3"
    },
    {
      "bufferView": 3,
      "byteOffset": 8560,
      "componentType": 5126,
      "count": 36,
      "max": [
        0.9999505877494812,
        0.88899177312850952,
        0.1277773529291153,
        1
      ],
      "min": [
        -0.99995052814483643,
        -0.0044626165181398392,
        -0.1277775764465332,
        -1
      ],
      "type": "VEC4"
    },
    {
      "bufferView": 0,
      "byteOffset": 4176,
      "componentType": 5125,
      "count": 36,
      "max": [
        35
      ],
      "min": [
        0
      ],
      "type": "SCALAR"
    },
    {
      "bufferView": 2,
      "byteOffset": 13704,
      "componentType": 5126,
      "count": 64,
      "max": [
        3.5273666381835938,
        18.58245849609375,
        41.72418212890625
      ],
      "min": [
        -3.5273666381835938,
        13.950778961181641,
        -21.131450653076172
      ],
      "type": "VEC3"
    },
    {
      "bufferView": 2,
      "byteOffset": 14472,
      "componentType": 5126,
      "count": 64,
      "max": [
        0.8090175986289978,
        0.84748560190200806,
        0.505992591381073
      ],
      "min": [
        -0.8090175986289978,
        0.52177602052688599,
        -0.0030928722117096186
      ],
      "type": "VEC3"
    },
    {
      "bufferView": 3,
      "byteOffset": 9136,
      "componentType": 5126,
      "count": 64,
      "max": [
        0.96382343769073486,
        0.63996851444244385,
        0.4009149968624115,
        1
      ],
      "min": [
        -0.96382355690002441,
        -1.1718768178070604e-07,
        -1,
        -1
      ],
      "type": "VEC4"
    },
    {
      "bufferView": 1,
      "componentType": 5126,
      "count": 64,
      "max": [
        1.0492690801620483,
        1.054736852645874
      ],
      "min": [
        -0.080688014626502991,
        0.22122871875762939
      ],
      "type": "VEC2"
    },
    {
      "bufferView": 0,
      "byteOffset": 4320,
      "componentType": 5125,
      "count": 96,
      "max": [
        63
      ],
      "min": [
        0
      ],
      "type": "SCALAR"
    },
    {
      "bufferView": 2,
      "byteOffset": 15240,
      "componentType": 5126,
      "count": 24,
      "max": [
        29.5517578125,
        17.178577423095703,
        15.354422569274902
      ],
      "min": [
        -29.5517578125,
        13.727458953857422,
        0.64591002464294434
      ],
      "type": "VEC3"
    },
    {
      "bufferView": 2,
      "byteOffset": 15528,
      "componentType": 5126,
      "count": 24,
      "max": [
        0.30256590247154236,
        0.86130785942077637,
        0.83082544803619385
      ],
      "min": [
        -0.30256587266921997,
        0.46710070967674255,
        0.47288358211517334
      ],
      "type": "VEC3"
    },
    {
      "bufferView": 3,
      "byteOffset": 10160,
      "componentType": 5126,
      "count": 24,
      "max": [
        0.95833557844161987,
        0.87382197380065918,
        0.2540448009967804,
        1
      ],
      "min": [
        -0.95833569765090942,
        0.13059143722057343,
        -0.8770630955696106,
        -1
      ],
      "type": "VEC4"
    },
    {
      "bufferView": 0,
      "byteOffset": 4704,
      "componentType": 5125,
      "count": 36,
      "max": [
        23
      ],
      "min": [
        0
      ],
      "type": "SCALAR"
    }
  ],
  "asset": {
    "extras": {
      "author": "elbert.nathanaeltkg (https://sketchfab.com/elbert.nathanaeltkg)",
      "license": "CC-BY-4.0 (http://creativecommons.org/licenses/by/4.0/)",
      "source": "https://sketchfab.com/models/151517395bae4d849b30ca53a5e3c5a8",
      "title": "Low poly plane"
    },
    "generator": "Sketchfab-3.18.6",
    "version": "2.0"
  },
  "bufferViews": [
    {
      "buffer": 0,
      "byteLength": 4848,
      "byteOffset": 0,
      "name": "floatBufferViews",
      "target": 34963
    },
    {
      "buffer": 0,
      "byteLength": 512,
      "byteOffset": 4848,
      "byteStride": 8,
      "name": "floatBufferViews",
      "target": 34962
    },
    {
      "buffer": 0,
      "byteLength": 15816,
      "byteOffset": 5360,
      "byteStride": 12,
      "name": "floatBufferViews",
      "target": 34962
    },
    {
      "buffer": 0,
      "byteLength": 10544,
      "byteOffset": 21176,
      "byteStride": 16,
      "name": "floatBufferViews",
      "target": 34962
    }
  ],
  "buffers": [
    {
      "byteLength": 31720,
      "uri": "scene.bin"
    }
  ],
  "extensionsUsed": [
    "KHR_materials_unlit"
  ],
  "images": [
    {
      "uri": "textures/T_lam_plane_windows_baseColor.png"
    }
  ],
  "materials": [
    {
      "doubleSided": true,
      "emissiveFactor": [
        0,
        0,
        0
      ],
      "extensions": {
        "KHR_materials_unlit": {}
      },
      "name": "lambert2",
      "pbrMetallicRoughness": {
        "baseColorFactor": [
          0.80000000000000004,
          0.80000000000000004,
          0.80000000000000004,
          1
        ],
        "metallicFactor": 0,
        "roughnessFactor": 1
      }
    },
    {
      "doubleSided": true,
      "emissiveFactor": [
        0,
        0,
        0
      ],
      "extensions": {
        "KHR_materials_unlit": {}
      },
      "name": "lambert3",
      "pbrMetallicRoughness": {
        "baseColorFactor": [
          0.10024,
          0.19232000000000002,
          0.30872000000000005,
          1
        ],
        "metallicFactor": 0,
        "roughnessFactor": 1
      }
    },
    {
      "doubleSided": true,
      "emissiveFactor": [
        0,
        0,
        0
      ],
      "extensions": {
        "KHR_materials_unlit": {}
      },
      "name": "lam_balck_engine",
      "pbrMetallicRoughness": {
        "baseColorFactor": [
          0,
          0,
          0,
          1
        ],
        "metallicFactor": 0,
        "roughnessFactor": 1
      }
    },
    {
      "doubleSided": true,
      "emissiveFactor": [
        0,
        0,
        0
      ],
      "extensions": {
        "KHR_materials_unlit": {}
      },
      "name": "T_lam_plane_windows",
      "pbrMetallicRoughness": {
        "baseColorFactor": [
          0.80000000000000004,
          0.80000000000000004,
          0.80000000000000004,
          1
        ],
        "baseColorTexture": {
          "index": 0,
          "texCoord": 0
        },
        "metallicFactor": 0,
        "roughnessFactor": 1
      }
    }
  ],
  "meshes": [
    {
      "name": "polySurface3_lambert2_0",
      "primitives": [
        {
          "attributes": {
            "NORMAL": 1,
            "POSITION": 0,
            "TANGENT": 2
          },
          "indices": 3,
          "material": 0,
          "mode": 4
        }
      ]
    },
    {
      "name": "polySurface3_lambert3_0",
      "primitives": [
        {
          "attributes": {
            "NORMAL": 5,
            "POSITION": 4,
            "TANGENT": 6
          },
          "indices": 7,
          "material": 1,
          "mode": 4
        }
      ]
    },
    {
      "name": "polySurface3_lam_balck_engine_0",
      "primitives": [
        {
          "attributes": {
            "NORMAL": 9,
            "POSITION": 8,
            "TANGENT": 10
          },
          "indices": 11,
          "material": 2,
          "mode": 4
        }
      ]
    },
    {
      "name": "polySurface2_T_lam_plane_windows_0",
      "primitives": [
        {
          "attributes": {
            "NORMAL": 13,
            "POSITION": 12,
            "TANGENT": 14,
            "TEXCOORD_0": 15
          },
          "indices": 16,
          "material": 3,
          "mode": 4
        }
      ]
    },
    {
      "name": "polySurface2_lambert3_0",
      "primitives": [
        {
          "attributes": {
            "NORMAL": 18,
            "POSITION": 17,
            "TANGENT": 19
          },
          "indices": 20,
          "material": 1,
          "mode": 4
        }
      ]
    }
  ],
  "nodes": [
    {
      "children": [
        1
      ],
      "name": "RootNode (gltf orientation matrix)",
      "rotation": [
        -0.70710678118654746,
        -0,
        -0,
        0.70710678118654757
      ]
    },
    {
      "children": [
        2
      ],
      "name": "RootNode (model correction matrix)"
    },
    {
      "children": [
        3
      ],
      "matrix": [
        1,
        0,
        0,
        0,
        0,
        0,
        1,
        0,
        0,
        -1,
        0,
        0,
        0,
        0,
        0,
        1
      ],
      "name": "c0e48df70d364abaae5782de7a3cf37f.fbx"
    },
    {
      "children": [
        4,
        8
      ],
      "name": "RootNode"
    },
    {
      "children": [
        5,
        6,
        7
      ],
      "name": "polySurface3"
    },
    {
      "mesh": 0,
      "name": "polySurface3_lambert2_0"
    },
    {
      "mesh": 1,
      "name": "polySurface3_lambert3_0"
    },
    {
      "mesh": 2,
      "name": "polySurface3_lam_balck_engine_0"
    },
    {
      "children": [
        9,
        10
      ],
      "name": "polySurface2"
    },
    {
      "mesh": 3,
      "name": "polySurface2_T_lam_plane_windows_0"
    },
    {
      "mesh": 4,
      "name": "polySurface2_lambert3_0"
    }
  ],
  "samplers": [
    {
      "magFilter": 9729,
      "minFilter": 9987,
      "wrapS": 10497,
      "wrapT": 10497
    }
  ],
  "scene": 0,
  "scenes": [
    {
      "name": "OSG_Scene",
      "nodes": [
        0
      ]
    }
  ],
  "textures": [
    {
      "sampler": 0,
      "source": 0
    }
  ]
}

