{
  "accessors": [
    {
      "bufferView": 1,
      "componentType": 5126,
      "count": 256,
      "max": [
        1,
        1,
        1
      ],
      "min": [
        -1,
        -1,
        -1
      ],
      "type": "VEC3"
    },
    {
      "bufferView": 1,
      "byteOffset": 3072,
      "componentType": 5126,
      "count": 256,
      "max": [
        0.99518442153930664,
        0.99518442153930664,
        1
      ],
      "min": [
        -0.99518442153930664,
        -0.99518442153930664,
        -1
      ],
      "type": "VEC3"
    },
    {
      "bufferView": 0,
      "componentType": 5125,
      "count": 564,
      "max": [
        255
      ],
      "min": [
        0
      ],
      "type": "SCALAR"
    },
    {
      "bufferView": 1,
      "byteOffset": 6144,
      "componentType": 5126,
      "count": 640,
      "max": [
        0.80000001192092896,
        0.80000001192092896,
        1.016260027885437
      ],
      "min": [
        -0.80000001192092896,
        -0.80000001192092896,
        0.44242998957633972
      ],
      "type": "VEC3"
    },
    {
      "bufferView": 1,
      "byteOffset": 13824,
      "componentType": 5126,
      "count": 640,
      "max": [
        0.99518442153930664,
        0.99518442153930664,
        1
      ],
      "min": [
        -0.99518442153930664,
        -0.99518442153930664,
        0
      ],
      "type": "VEC3"
    },
    {
      "bufferView": 0,
      "byteOffset": 2256,
      "componentType": 5125,
      "count": 1152,
      "max": [
        639
      ],
      "min": [
        0
      ],
      "type": "SCALAR"
    },
    {
      "bufferView": 1,
      "byteOffset": 21504,
      "componentType": 5126,
      "count": 256,
      "max": [
        1,
        1,
        1
      ],
      "min": [
        -1,
        -1,
        -1
      ],
      "type": "VEC3"
    },
    {
      "bufferView": 1,
      "byteOffset": 24576,
      "componentType": 5126,
      "count": 256,
      "max": [
        0.99518442153930664,
        0.99518442153930664,
        1
      ],
      "min": [
        -0.99518442153930664,
        -0.99518442153930664,
        -1
      ],
      "type": "VEC3"
    },
    {
      "bufferView": 0,
      "byteOffset": 6864,
      "componentType": 5125,
      "count": 564,
      "max": [
        255
      ],
      "min": [
        0
      ],
      "type": "SCALAR"
    },
    {
      "bufferView": 1,
      "byteOffset": 27648,
      "componentType": 5126,
      "count": 640,
      "max": [
        0.80000001192092896,
        0.80000001192092896,
        1.016260027885437
      ],
      "min": [
        -0.80000001192092896,
        -0.80000001192092896,
        0.44242998957633972
      ],
      "type": "VEC3"
    },
    {
      "bufferView": 1,
      "byteOffset": 35328,
      "componentType": 5126,
      "count": 640,
      "max": [
        0.99518442153930664,
        0.99518442153930664,
        1
      ],
      "min": [
        -0.99518442153930664,
        -0.99518442153930664,
        0
      ],
      "type": "VEC3"
    },
    {
      "bufferView": 0,
      "byteOffset": 9120,
      "componentType": 5125,
      "count": 1152,
      "max": [
        639
      ],
      "min": [
        0
      ],
      "type": "SCALAR"
    },
    {
      "bufferView": 1,
      "byteOffset": 43008,
      "componentType": 5126,
      "count": 256,
      "max": [
        1,
        1,
        1
      ],
      "min": [
        -1,
        -1,
        -1
      ],
      "type": "VEC3"
    },
    {
      "bufferView": 1,
      "byteOffset": 46080,
      "componentType": 5126,
      "count": 256,
      "max": [
        0.99518442153930664,
        0.99518442153930664,
        1
      ],
      "min": [
        -0.99518442153930664,
        -0.99518442153930664,
        -1
      ],
      "type": "VEC3"
    },
    {
      "bufferView": 0,
      "byteOffset": 13728,
      "componentType": 5125,
      "count": 564,
      "max": [
        255
      ],
      "min": [
        0
      ],
      "type": "SCALAR"
    },
    {
      "bufferView": 1,
      "byteOffset": 49152,
      "componentType": 5126,
      "count": 640,
      "max": [
        0.80000001192092896,
        0.80000001192092896,
        1.016260027885437
      ],
      "min": [
        -0.80000001192092896,
        -0.80000001192092896,
        0.44242998957633972
      ],
      "type": "VEC3"
    },
    {
      "bufferView": 1,
      "byteOffset": 56832,
      "componentType": 5126,
      "count": 640,
      "max": [
        0.99518442153930664,
        0.99518442153930664,
        1
      ],
      "min": [
        -0.99518442153930664,
        -0.99518442153930664,
        0
      ],
      "type": "VEC3"
    },
    {
      "bufferView": 0,
      "byteOffset": 15984,
      "componentType": 5125,
      "count": 1152,
      "max": [
        639
      ],
      "min": [
        0
      ],
      "type": "SCALAR"
    },
    {
      "bufferView": 1,
      "byteOffset": 64512,
      "componentType": 5126,
      "count": 256,
      "max": [
        1,
        1,
        1
      ],
      "min": [
        -1,
        -1,
        -1
      ],
      "type": "VEC3"
    },
    {
      "bufferView": 1,
      "byteOffset": 67584,
      "componentType": 5126,
      "count": 256,
      "max": [
        0.99518442153930664,
        0.99518442153930664,
        1
      ],
      "min": [
        -0.99518442153930664,
        -0.99518442153930664,
        -1
      ],
      "type": "VEC3"
    },
    {
      "bufferView": 0,
      "byteOffset": 20592,
      "componentType": 5125,
      "count": 564,
      "max": [
        255
      ],
      "min": [
        0
      ],
      "type": "SCALAR"
    },
    {
      "bufferView": 1,
      "byteOffset": 70656,
      "componentType": 5126,
      "count": 640,
      "max": [
        0.80000001192092896,
        0.80000001192092896,
        1.016260027885437
      ],
      "min": [
        -0.80000001192092896,
        -0.80000001192092896,
        0.44242998957633972
      ],
      "type": "VEC3"
    },
    {
      "bufferView": 1,
      "byteOffset": 78336,
      "componentType": 5126,
      "count": 640,
      "max": [
        0.99518442153930664,
        0.99518442153930664,
        1
      ],
      "min": [
        -0.99518442153930664,
        -0.99518442153930664,
        0
      ],
      "type": "VEC3"
    },
    {
      "bufferView": 0,
      "byteOffset": 22848,
      "componentType": 5125,
      "count": 1152,
      "max": [
        639
      ],
      "min": [
        0
      ],
      "type": "SCALAR"
    },
    {
      "bufferView": 1,
      "byteOffset": 86016,
      "componentType": 5126,
      "count": 245,
      "max": [
        0.85589998960494995,
        1.6000000238418579,
        0.80000001192092896
      ],
      "min": [
        -0.85589998960494995,
        -1.928320050239563,
        -0.40000000596046448
      ],
      "type": "VEC3"
    },
    {
      "bufferView": 1,
      "byteOffset": 88956,
      "componentType": 5126,
      "count": 245,
      "max": [
        1,
        1,
        1
      ],
      "min": [
        -1,
        -1,
        -1
      ],
      "type": "VEC3"
    },
    {
      "bufferView": 0,
      "byteOffset": 27456,
      "componentType": 5125,
      "count": 564,
      "max": [
        244
      ],
      "min": [
        0
      ],
      "type": "SCALAR"
    },
    {
      "bufferView": 1,
      "byteOffset": 91896,
      "componentType": 5126,
      "count": 562,
      "max": [
        0.87361997365951538,
        1.6451400518417358,
        0.80000001192092896
      ],
      "min": [
        -0.87361997365951538,
        -1.8999999761581421,
        -0.63422000408172607
      ],
      "type": "VEC3"
    },
    {
      "bufferView": 1,
      "byteOffset": 98640,
      "componentType": 5126,
      "count": 562,
      "max": [
        1,
        1,
        1
      ],
      "min": [
        -1,
        -1,
        -1
      ],
      "type": "VEC3"
    },
    {
      "bufferView": 0,
      "byteOffset": 29712,
      "componentType": 5125,
      "count": 912,
      "max": [
        561
      ],
      "min": [
        0
      ],
      "type": "SCALAR"
    },
    {
      "bufferView": 1,
      "byteOffset": 105384,
      "componentType": 5126,
      "count": 20,
      "max": [
        0.84161001443862915,
        1.5658999681472778,
        0.76884001493453979
      ],
      "min": [
        -0.84161001443862915,
        -0.91737997531890869,
        0.039999999105930328
      ],
      "type": "VEC3"
    },
    {
      "bufferView": 1,
      "byteOffset": 105624,
      "componentType": 5126,
      "count": 20,
      "max": [
        0.99942690134048462,
        1,
        0.46288037300109863
      ],
      "min": [
        -0.99942690134048462,
        -0.88642072677612305,
        -0.014709954150021076
      ],
      "type": "VEC3"
    },
    {
      "bufferView": 0,
      "byteOffset": 33360,
      "componentType": 5125,
      "count": 36,
      "max": [
        19
      ],
      "min": [
        0
      ],
      "type": "SCALAR"
    },
    {
      "bufferView": 1,
      "byteOffset": 105864,
      "componentType": 5126,
      "count": 16,
      "max": [
        0.70959001779556274,
        -1.9144300222396851,
        -0.098090000450611115
      ],
      "min": [
        -0.70959001779556274,
        -1.9144300222396851,
        -0.24371999502182007
      ],
      "type": "VEC3"
    },
    {
      "bufferView": 1,
      "byteOffset": 106056,
      "componentType": 5126,
      "count": 16,
      "max": [
        0,
        -1,
        0
      ],
      "min": [
        0,
        -1,
        0
      ],
      "type": "VEC3"
    },
    {
      "bufferView": 0,
      "byteOffset": 33504,
      "componentType": 5125,
      "count": 24,
      "max": [
        15
      ],
      "min": [
        0
      ],
      "type": "SCALAR"
    },
    {
      "bufferView": 1,
      "byteOffset": 106248,
      "componentType": 5126,
      "count": 8,
      "max": [
        0.87286001443862915,
        -1.2262400388717651,
        -0.07507999986410141
      ],
      "min": [
        -0.87286001443862915,
        -1.2706700563430786,
        -0.11632999777793884
      ],
      "type": "VEC3"
    },
    {
      "bufferView": 1,
      "byteOffset": 106344,
      "componentType": 5126,
      "count": 8,
      "max": [
        1,
        -0,
        0
      ],
      "min": [
        -1,
        -0,
        0
      ],
      "type": "VEC3"
    },
    {
      "bufferView": 0,
      "byteOffset": 33600,
      "componentType": 5125,
      "count": 12,
      "max": [
        7
      ],
      "min": [
        0
      ],
      "type": "SCALAR"
    },
    {
      "bufferView": 1,
      "byteOffset": 106440,
      "componentType": 5126,
      "count": 16,
      "max": [
        0.70959001779556274,
        1.6312500238418579,
        -0.098090000450611115
      ],
      "min": [
        -0.70959001779556274,
        1.6312500238418579,
        -0.24371999502182007
      ],
      "type": "VEC3"
    },
    {
      "bufferView": 1,
      "byteOffset": 106632,
      "componentType": 5126,
      "count": 16,
      "max": [
        -0,
        1,
        0
      ],
      "min": [
        -0,
        1,
        0
      ],
      "type": "VEC3"
    },
    {
      "bufferView": 0,
      "byteOffset": 33648,
      "componentType": 5125,
      "count": 24,
      "max": [
        15
      ],
      "min": [
        0
      ],
      "type": "SCALAR"
    }
  ],
  "asset": {
    "extras": {
      "author": "Mativve (https://sketchfab.com/Mativve)",
      "license": "CC-BY-4.0 (http://creativecommons.org/licenses/by/4.0/)",
      "source": "https://sketchfab.com/models/58f7d29ff19b49409e03bb1b3f4f1941",
      "title": "Delivery van Lowpoly"
    },
    "generator": "Sketchfab-3.18.5",
    "version": "2.0"
  },
  "bufferViews": [
    {
      "buffer": 0,
      "byteLength": 33744,
      "byteOffset": 0,
      "name": "floatBufferViews",
      "target": 34963
    },
    {
      "buffer": 0,
      "byteLength": 106824,
      "byteOffset": 33744,
      "byteStride": 12,
      "name": "floatBufferViews",
      "target": 34962
    }
  ],
  "buffers": [
    {
      "byteLength": 140568,
      "uri": "scene.bin"
    }
  ],
  "materials": [
    {
      "doubleSided": true,
      "emissiveFactor": [
        0,
        0,
        0
      ],
      "name": "Material",
      "pbrMetallicRoughness": {
        "baseColorFactor": [
          1,
          1,
          1,
          1
        ],
        "metallicFactor": 0,
        "roughnessFactor": 0.59999999999999998
      }
    },
    {
      "doubleSided": true,
      "emissiveFactor": [
        0,
        0,
        0
      ],
      "name": "Material.001",
      "pbrMetallicRoughness": {
        "baseColorFactor": [
          0.1470272839,
          0.1441285014,
          0.13286834959999999,
          1
        ],
        "metallicFactor": 0,
        "roughnessFactor": 0.59999999999999998
      }
    },
    {
      "doubleSided": true,
      "emissiveFactor": [
        0,
        0,
        0
      ],
      "name": "Material.002",
      "pbrMetallicRoughness": {
        "baseColorFactor": [
          0.27049785850000002,
          0.80695235730000003,
          0.81484687330000005,
          1
        ],
        "metallicFactor": 0,
        "roughnessFactor": 0.59999999999999998
      }
    },
    {
      "doubleSided": true,
      "emissiveFactor": [
        0,
        0,
        0
      ],
      "name": "Material.003",
      "pbrMetallicRoughness": {
        "baseColorFactor": [
          1,
          0.86189746860000005,
          0.59770929809999995,
          1
        ],
        "metallicFactor": 0,
        "roughnessFactor": 0.59999999999999998
      }
    },
    {
      "doubleSided": true,
      "emissiveFactor": [
        0,
        0,
        0
      ],
      "name": "Material.005",
      "pbrMetallicRoughness": {
        "baseColorFactor": [
          0.68668538329999995,
          0.40724021199999999,
          0.076185382900000001,
          1
        ],
        "metallicFactor": 0,
        "roughnessFactor": 0.59999999999999998
      }
    },
    {
      "doubleSided": true,
      "emissiveFactor": [
        0,
        0,
        0
      ],
      "name": "Material.006",
      "pbrMetallicRoughness": {
        "baseColorFactor": [
          0.50888127090000002,
          0.054480284499999997,
          0.056128494399999999,
          1
        ],
        "metallicFactor": 0,
        "roughnessFactor": 0.59999999999999998
      }
    },
    {
      "doubleSided": true,
      "emissiveFactor": [
        0,
        0,
        0
      ],
      "name": "Material.004",
      "pbrMetallicRoughness": {
        "baseColorFactor": [
          0.0069954107000000003,
          0.0097212185999999996,
          0.0122864898,
          1
        ],
        "metallicFactor": 0,
        "roughnessFactor": 0.59999999999999998
      }
    }
  ],
  "meshes": [
    {
      "name": "FrontRight_0",
      "primitives": [
        {
          "attributes": {
            "NORMAL": 1,
            "POSITION": 0
          },
          "indices": 2,
          "material": 6,
          "mode": 4
        }
      ]
    },
    {
      "name": "FrontRight_1",
      "primitives": [
        {
          "attributes": {
            "NORMAL": 4,
            "POSITION": 3
          },
          "indices": 5,
          "material": 0,
          "mode": 4
        }
      ]
    },
    {
      "name": "RearRight_0",
      "primitives": [
        {
          "attributes": {
            "NORMAL": 7,
            "POSITION": 6
          },
          "indices": 8,
          "material": 6,
          "mode": 4
        }
      ]
    },
    {
      "name": "RearRight_1",
      "primitives": [
        {
          "attributes": {
            "NORMAL": 10,
            "POSITION": 9
          },
          "indices": 11,
          "material": 0,
          "mode": 4
        }
      ]
    },
    {
      "name": "RearLeft_0",
      "primitives": [
        {
          "attributes": {
            "NORMAL": 13,
            "POSITION": 12
          },
          "indices": 14,
          "material": 6,
          "mode": 4
        }
      ]
    },
    {
      "name": "RearLeft_1",
      "primitives": [
        {
          "attributes": {
            "NORMAL": 16,
            "POSITION": 15
          },
          "indices": 17,
          "material": 0,
          "mode": 4
        }
      ]
    },
    {
      "name": "FrontLeft_0",
      "primitives": [
        {
          "attributes": {
            "NORMAL": 19,
            "POSITION": 18
          },
          "indices": 20,
          "material": 6,
          "mode": 4
        }
      ]
    },
    {
      "name": "FrontLeft_1",
      "primitives": [
        {
          "attributes": {
            "NORMAL": 22,
            "POSITION": 21
          },
          "indices": 23,
          "material": 0,
          "mode": 4
        }
      ]
    },
    {
      "name": "Body_0",
      "primitives": [
        {
          "attributes": {
            "NORMAL": 25,
            "POSITION": 24
          },
          "indices": 26,
          "material": 0,
          "mode": 4
        }
      ]
    },
    {
      "name": "Body_1",
      "primitives": [
        {
          "attributes": {
            "NORMAL": 28,
            "POSITION": 27
          },
          "indices": 29,
          "material": 1,
          "mode": 4
        }
      ]
    },
    {
      "name": "Body_2",
      "primitives": [
        {
          "attributes": {
            "NORMAL": 31,
            "POSITION": 30
          },
          "indices": 32,
          "material": 2,
          "mode": 4
        }
      ]
    },
    {
      "name": "Body_3",
      "primitives": [
        {
          "attributes": {
            "NORMAL": 34,
            "POSITION": 33
          },
          "indices": 35,
          "material": 3,
          "mode": 4
        }
      ]
    },
    {
      "name": "Body_4",
      "primitives": [
        {
          "attributes": {
            "NORMAL": 37,
            "POSITION": 36
          },
          "indices": 38,
          "material": 4,
          "mode": 4
        }
      ]
    },
    {
      "name": "Body_5",
      "primitives": [
        {
          "attributes": {
            "NORMAL": 40,
            "POSITION": 39
          },
          "indices": 41,
          "material": 5,
          "mode": 4
        }
      ]
    }
  ],
  "nodes": [
    {
      "children": [
        1
      ],
      "name": "RootNode (gltf orientation matrix)",
      "rotation": [
        -0.70710678118654746,
        -0,
        -0,
        0.70710678118654757
      ]
    },
    {
      "children": [
        2
      ],
      "name": "RootNode (model correction matrix)"
    },
    {
      "children": [
        3,
        6,
        9,
        12,
        15
      ],
      "name": "Root"
    },
    {
      "children": [
        4,
        5
      ],
      "matrix": [
        0,
        0,
        -0.35929,
        0,
        0,
        -0.35929,
        0,
        0,
        -0.060740000000000009,
        -0,
        -0,
        0,
        -0.80187000000000008,
        -1.3,
        -0.60000000000000009,
        1
      ],
      "name": "FrontRight"
    },
    {
      "mesh": 0,
      "name": "FrontRight_0"
    },
    {
      "mesh": 1,
      "name": "FrontRight_1"
    },
    {
      "children": [
        7,
        8
      ],
      "matrix": [
        0,
        0,
        -0.35929,
        0,
        0,
        -0.35929,
        0,
        0,
        -0.060740000000000009,
        -0,
        -0,
        0,
        -0.80187000000000008,
        0.90000000000000002,
        -0.60000000000000009,
        1
      ],
      "name": "RearRight"
    },
    {
      "mesh": 2,
      "name": "RearRight_0"
    },
    {
      "mesh": 3,
      "name": "RearRight_1"
    },
    {
      "children": [
        10,
        11
      ],
      "matrix": [
        0,
        0,
        -0.35929,
        0,
        0,
        0.35929,
        0,
        0,
        0.060740000000000009,
        0,
        0,
        0,
        0.79813000000000001,
        0.90000000000000002,
        -0.60000000000000009,
        1
      ],
      "name": "RearLeft"
    },
    {
      "mesh": 4,
      "name": "RearLeft_0"
    },
    {
      "mesh": 5,
      "name": "RearLeft_1"
    },
    {
      "children": [
        13,
        14
      ],
      "matrix": [
        0,
        0,
        -0.35929,
        0,
        0,
        0.35929,
        0,
        0,
        0.060740000000000009,
        0,
        0,
        0,
        0.79813000000000001,
        -1.3,
        -0.60000000000000009,
        1
      ],
      "name": "FrontLeft"
    },
    {
      "mesh": 6,
      "name": "FrontLeft_0"
    },
    {
      "mesh": 7,
      "name": "FrontLeft_1"
    },
    {
      "children": [
        16,
        17,
        18,
        19,
        20,
        21
      ],
      "matrix": [
        1,
        0,
        0,
        0,
        0,
        1,
        0,
        0,
        0,
        0,
        1,
        0,
        0,
        0,
        0.055640000000000009,
        1
      ],
      "name": "Body"
    },
    {
      "mesh": 8,
      "name": "Body_0"
    },
    {
      "mesh": 9,
      "name": "Body_1"
    },
    {
      "mesh": 10,
      "name": "Body_2"
    },
    {
      "mesh": 11,
      "name": "Body_3"
    },
    {
      "mesh": 12,
      "name": "Body_4"
    },
    {
      "mesh": 13,
      "name": "Body_5"
    }
  ],
  "scene": 0,
  "scenes": [
    {
      "name": "OSG_Scene",
      "nodes": [
        0
      ]
    }
  ]
}

