{
  "accessors": [
    {
      "bufferView": 2,
      "componentType": 5126,
      "count": 65532,
      "max": [
        28.292991638183594,
        15.647126197814941,
        157.59988403320312
      ],
      "min": [
        -22.016326904296875,
        -22.252540588378906,
        0.0558013916015625
      ],
      "type": "VEC3"
    },
    {
      "bufferView": 2,
      "byteOffset": 786384,
      "componentType": 5126,
      "count": 65532,
      "max": [
        0.99999904632568359,
        0.99999654293060303,
        0.9998781681060791
      ],
      "min": [
        -0.99997061491012573,
        -0.99999284744262695,
        -0.99994856119155884
      ],
      "type": "VEC3"
    },
    {
      "bufferView": 3,
      "componentType": 5126,
      "count": 65532,
      "max": [
        0.9999968409538269,
        0.99999147653579712,
        0.99989241361618042,
        1
      ],
      "min": [
        -0.99999558925628662,
        -0.99949061870574951,
        -0.99967551231384277,
        -1
      ],
      "type": "VEC4"
    },
    {
      "bufferView": 1,
      "componentType": 5126,
      "count": 65532,
      "max": [
        0.98502397537231445,
        0.99840301275253296
      ],
      "min": [
        0.13734200596809387,
        0.29682695865631104
      ],
      "type": "VEC2"
    },
    {
      "bufferView": 0,
      "componentType": 5125,
      "count": 364971,
      "max": [
        65531
      ],
      "min": [
        0
      ],
      "type": "SCALAR"
    },
    {
      "bufferView": 2,
      "byteOffset": 1572768,
      "componentType": 5126,
      "count": 65532,
      "max": [
        28.096046447753906,
        16.1441650390625,
        181.25677490234375
      ],
      "min": [
        -23.367891311645508,
        -18.402187347412109,
        0.2559051513671875
      ],
      "type": "VEC3"
    },
    {
      "bufferView": 2,
      "byteOffset": 2359152,
      "componentType": 5126,
      "count": 65532,
      "max": [
        0.99999451637268066,
        0.99998575448989868,
        0.99997967481613159
      ],
      "min": [
        -0.99997460842132568,
        -0.99999678134918213,
        -0.99994385242462158
      ],
      "type": "VEC3"
    },
    {
      "bufferView": 3,
      "byteOffset": 1048512,
      "componentType": 5126,
      "count": 65532,
      "max": [
        0.999961256980896,
        0.99971067905426025,
        0.998862624168396,
        1
      ],
      "min": [
        -0.99998593330383301,
        -0.99997246265411377,
        -0.9999580979347229,
        -1
      ],
      "type": "VEC4"
    },
    {
      "bufferView": 1,
      "byteOffset": 524256,
      "componentType": 5126,
      "count": 65532,
      "max": [
        0.97707098722457886,
        0.99777299165725708
      ],
      "min": [
        0.027191000059247017,
        0.0010210275650024414
      ],
      "type": "VEC2"
    },
    {
      "bufferView": 0,
      "byteOffset": 1459884,
      "componentType": 5125,
      "count": 356220,
      "max": [
        65531
      ],
      "min": [
        0
      ],
      "type": "SCALAR"
    },
    {
      "bufferView": 2,
      "byteOffset": 3145536,
      "componentType": 5126,
      "count": 44718,
      "max": [
        27.795246124267578,
        15.591553688049316,
        181.25677490234375
      ],
      "min": [
        -23.367891311645508,
        -19.035991668701172,
        0.476531982421875
      ],
      "type": "VEC3"
    },
    {
      "bufferView": 2,
      "byteOffset": 3682152,
      "componentType": 5126,
      "count": 44718,
      "max": [
        0.99983930587768555,
        0.99998730421066284,
        0.99975794553756714
      ],
      "min": [
        -0.99999606609344482,
        -0.9999687671661377,
        -0.99997627735137939
      ],
      "type": "VEC3"
    },
    {
      "bufferView": 3,
      "byteOffset": 2097024,
      "componentType": 5126,
      "count": 44718,
      "max": [
        0.99999457597732544,
        0.99999469518661499,
        0.99987465143203735,
        1
      ],
      "min": [
        -0.99998146295547485,
        -0.99999004602432251,
        -0.99998587369918823,
        -1
      ],
      "type": "VEC4"
    },
    {
      "bufferView": 1,
      "byteOffset": 1048512,
      "componentType": 5126,
      "count": 44718,
      "max": [
        0.99747902154922485,
        0.99840301275253296
      ],
      "min": [
        0.001597000053152442,
        0.0003299713134765625
      ],
      "type": "VEC2"
    },
    {
      "bufferView": 0,
      "byteOffset": 2884764,
      "componentType": 5125,
      "count": 230007,
      "max": [
        44717
      ],
      "min": [
        0
      ],
      "type": "SCALAR"
    },
    {
      "bufferView": 2,
      "byteOffset": 4218768,
      "componentType": 5126,
      "count": 3775,
      "max": [
        14.981105804443359,
        12.10728645324707,
        167.77143859863281
      ],
      "min": [
        -19.313312530517578,
        -22.136260986328125,
        -0.089111328125
      ],
      "type": "VEC3"
    },
    {
      "bufferView": 2,
      "byteOffset": 4264068,
      "componentType": 5126,
      "count": 3775,
      "max": [
        0.95051360130310059,
        0.68163186311721802,
        0.90332889556884766
      ],
      "min": [
        -0.90662020444869995,
        -0.92360293865203857,
        -0.9999886155128479
      ],
      "type": "VEC3"
    },
    {
      "bufferView": 0,
      "byteOffset": 3804792,
      "componentType": 5125,
      "count": 21084,
      "max": [
        3774
      ],
      "min": [
        0
      ],
      "type": "SCALAR"
    }
  ],
  "asset": {
    "extras": {
      "author": "THOR 3D (https://sketchfab.com/thor3D)",
      "license": "CC-BY-4.0 (http://creativecommons.org/licenses/by/4.0/)",
      "source": "https://sketchfab.com/models/b3c6e6f18e8f44e2becf75dfb26d4023",
      "title": "Man with a smile"
    },
    "generator": "Sketchfab-3.18.2",
    "version": "2.0"
  },
  "bufferViews": [
    {
      "buffer": 0,
      "byteLength": 3889128,
      "byteOffset": 0,
      "name": "floatBufferViews",
      "target": 34963
    },
    {
      "buffer": 0,
      "byteLength": 1406256,
      "byteOffset": 3889128,
      "byteStride": 8,
      "name": "floatBufferViews",
      "target": 34962
    },
    {
      "buffer": 0,
      "byteLength": 4309368,
      "byteOffset": 5295384,
      "byteStride": 12,
      "name": "floatBufferViews",
      "target": 34962
    },
    {
      "buffer": 0,
      "byteLength": 2812512,
      "byteOffset": 9604752,
      "byteStride": 16,
      "name": "floatBufferViews",
      "target": 34962
    }
  ],
  "buffers": [
    {
      "byteLength": 12417264,
      "uri": "scene.bin"
    }
  ],
  "images": [
    {
      "uri": "textures/material_0_baseColor.png"
    }
  ],
  "materials": [
    {
      "doubleSided": true,
      "emissiveFactor": [
        0,
        0,
        0
      ],
      "name": "material_0",
      "pbrMetallicRoughness": {
        "baseColorFactor": [
          1,
          1,
          1,
          1
        ],
        "baseColorTexture": {
          "index": 0,
          "texCoord": 0
        },
        "metallicFactor": 0,
        "roughnessFactor": 0.59999999999999998
      }
    },
    {
      "doubleSided": true,
      "emissiveFactor": [
        0,
        0,
        0
      ],
      "name": "material_1",
      "pbrMetallicRoughness": {
        "baseColorFactor": [
          1,
          1,
          1,
          1
        ],
        "metallicFactor": 0,
        "roughnessFactor": 0.59999999999999998
      }
    }
  ],
  "meshes": [
    {
      "primitives": [
        {
          "attributes": {
            "NORMAL": 1,
            "POSITION": 0,
            "TANGENT": 2,
            "TEXCOORD_0": 3
          },
          "indices": 4,
          "material": 0,
          "mode": 4
        }
      ]
    },
    {
      "primitives": [
        {
          "attributes": {
            "NORMAL": 6,
            "POSITION": 5,
            "TANGENT": 7,
            "TEXCOORD_0": 8
          },
          "indices": 9,
          "material": 0,
          "mode": 4
        }
      ]
    },
    {
      "primitives": [
        {
          "attributes": {
            "NORMAL": 11,
            "POSITION": 10,
            "TANGENT": 12,
            "TEXCOORD_0": 13
          },
          "indices": 14,
          "material": 0,
          "mode": 4
        }
      ]
    },
    {
      "primitives": [
        {
          "attributes": {
            "NORMAL": 16,
            "POSITION": 15
          },
          "indices": 17,
          "material": 1,
          "mode": 4
        }
      ]
    }
  ],
  "nodes": [
    {
      "children": [
        1
      ],
      "name": "RootNode (gltf orientation matrix)",
      "rotation": [
        -0.70710678118654746,
        -0,
        -0,
        0.70710678118654757
      ]
    },
    {
      "children": [
        2
      ],
      "name": "RootNode (model correction matrix)"
    },
    {
      "children": [
        3,
        4,
        5,
        6
      ],
      "name": "naeel.obj.cleaner"
    },
    {
      "mesh": 0,
      "name": ""
    },
    {
      "mesh": 1,
      "name": ""
    },
    {
      "mesh": 2,
      "name": ""
    },
    {
      "mesh": 3,
      "name": ""
    }
  ],
  "samplers": [
    {
      "magFilter": 9729,
      "minFilter": 9987,
      "wrapS": 10497,
      "wrapT": 10497
    }
  ],
  "scene": 0,
  "scenes": [
    {
      "name": "OSG_Scene",
      "nodes": [
        0
      ]
    }
  ],
  "textures": [
    {
      "sampler": 0,
      "source": 0
    }
  ]
}

